<?xml version="1.0" ?><!DOCTYPE svg  PUBLIC '-//W3C//DTD SVG 1.1//EN'  'http://www.w3.org/Graphics/SVG/1.1/DTD/svg11.dtd'><svg enable-background="new 0 0 512 512" height="512px" id="Layer_1" version="1.1" viewBox="0 0 512 512" width="512px" xml:space="preserve" xmlns="http://www.w3.org/2000/svg" xmlns:xlink="http://www.w3.org/1999/xlink"><path d="M459.857,438.141c0,6.014-2.439,11.459-6.381,15.4L256.001,256.064l203.856,0V438.141z" fill="#3B2416"/><path d="M52.143,74.012c0-6.014,2.438-11.458,6.379-15.4l197.476,197.477L52.143,256.09V74.012z" fill="#6D4A39"/><g><polyline fill="#3B2416" points="255.998,256.297 320.041,192.252 459.854,214.301 459.854,256.297 459.855,256.271    459.855,296.797 347.633,347.906 256,256.273  "/><path d="M255.999,256.134v136.936l182.075,66.92c6.014,0,11.459-2.438,15.4-6.379s6.381-9.387,6.381-15.4   L336.331,256.133L255.999,256.134z" fill="#3B2416"/></g><g><path d="M256,256.273l85.964,85.965l-52.877,117.891H256h-46.409l16.569-175.074   C244.108,267.699,256,256.273,256,256.273" fill="#543729"/><path d="M255.999,256.134h-91.001L52.142,438.21c0,6.016,2.44,11.463,6.382,15.402   c3.94,3.941,9.384,6.377,15.397,6.377l182.078-81.587C255.999,320.171,255.999,252.687,255.999,256.134z" fill="#543729"/></g><g><polyline fill="#6D4A39" points="256,256.273 184.032,328.242 52.143,278.799 52.143,256.273 52.142,256.299 52.142,221.803    164.955,165.254 255.998,256.297  "/><path d="M255.997,256.158v-83.081L73.922,52.303c-6.014,0-11.46,2.437-15.402,6.378   c-3.941,3.942-6.379,9.386-6.379,15.4l102.857,182.077H255.997z" fill="#6D4A39"/></g><g><polyline fill="#865B48" points="255.998,256.297 198.954,199.254 220.092,52.442 255.998,52.442 301.086,52.442 367.664,144.628    255.998,256.297  "/><path d="M453.471,58.679c-3.939-3.94-9.383-6.376-15.396-6.376L255.996,201.735c0,32.358,0,56.52,0,54.423   l89.001-0.001L459.854,74.082C459.854,68.066,453.471,58.679,453.471,58.679z" fill="#865B48"/></g><path d="M453.477,453.541c-3.941,3.941-9.387,6.379-15.4,6.379H256.001V256.064L453.477,453.541z" fill="#482E20"/><path d="M256.001,459.92H73.923c-6.013,0-11.457-2.436-15.397-6.377c-3.942-3.939,197.475-197.479,197.475-197.479  C256.001,250.05,256.001,459.92,256.001,459.92z" fill="#543729"/><path d="M58.526,453.543c-3.942-3.939-6.382-9.387-6.382-15.402V256.065l203.857-0.001L58.526,453.543z" fill="#614131"/><path d="M58.522,58.612c3.941-3.941,9.388-6.378,15.402-6.378h182.074v203.855L58.522,58.612z" fill="#7A5241"/><path d="M255.999,52.233h182.078c6.014,0,11.457,2.436,15.396,6.376L255.999,256.089  C255.999,262.102,255.999,52.233,255.999,52.233z" fill="#865B48"/><path d="M453.473,58.609c0,0,6.383,9.387,6.383,15.403v182.076l-203.857,0.001L453.473,58.609z" fill="#8B5E4B"/><g id="Flat_copy"><path d="M353.818,125.791H158.18c-18.414,0-32.606,14.192-32.606,32.605v195.639   c0,18.406,14.192,32.605,32.606,32.605h195.639c18.406,0,32.605-14.199,32.605-32.605V158.396   C386.424,139.983,372.225,125.791,353.818,125.791z M255.999,206.289c28.931,0,50.183,22.148,50.183,50.183   c0,28.017-21.065,50.007-49.996,50.007c-28.905,0-50.37-21.99-50.37-50.007C205.824,228.437,227.101,206.289,255.999,206.289z    M353.818,345.883c0,5.715-2.446,8.152-8.152,8.152H166.332c-5.698,0-8.152-2.438-8.152-8.152V236.091l20.322,0.089   c-2.176,7.09-3.367,14.59-3.367,22.375c0,43.352,36.307,78.533,81.051,78.533c44.768,0,81.059-35.174,81.059-78.533   c0-7.785-1.182-15.285-3.357-22.375l19.952,0.038L353.818,345.883z M353.818,199.155c0,4.509-3.645,8.152-8.152,8.152h-32.605   c-4.509,0-8.152-3.644-8.152-8.152v-32.606c0-4.508,3.644-8.152,8.152-8.152h32.605c4.508,0,8.152,3.645,8.152,8.152V199.155z" fill="#FFFFFF"/></g></svg>